<svg width="387" height="40" viewBox="0 0 387 40" fill="none" xmlns="http://www.w3.org/2000/svg">
<path d="M16.52 4.92C20.808 4.92 24.504 6.28 27.608 9L23.624 13.176C22.44 12.28 21.336 11.64 20.312 11.256C19.32 10.84 18.168 10.632 16.856 10.632C14.392 10.632 12.424 11.608 10.952 13.56C9.48 15.48 8.744 18.408 8.744 22.344C8.744 26.6 9.304 29.624 10.424 31.416C11.544 33.176 13.288 34.056 15.656 34.056C17.32 34.056 18.824 33.688 20.168 32.952V25.416H15.848L15.08 19.848H27.8V36.312C26.072 37.432 24.168 38.296 22.088 38.904C20.008 39.512 17.928 39.816 15.848 39.816C10.792 39.816 6.984 38.344 4.424 35.4C1.864 32.424 0.584 28.072 0.584 22.344C0.584 18.696 1.272 15.56 2.648 12.936C4.056 10.312 5.96 8.328 8.36 6.984C10.792 5.608 13.512 4.92 16.52 4.92ZM54.4175 39H47.8415L47.5055 35.784C45.6495 38.472 43.0735 39.816 39.7775 39.816C37.4415 39.816 35.6655 39.112 34.4495 37.704C33.2655 36.296 32.6735 34.328 32.6735 31.8V13.512H40.2575V30.84C40.2575 32.088 40.4495 32.968 40.8335 33.48C41.2495 33.96 41.8735 34.2 42.7055 34.2C44.3055 34.2 45.6815 33.208 46.8335 31.224V13.512H54.4175V39ZM67.9663 13.512V39H60.3823V13.512H67.9663ZM64.1263 0.0719976C65.4383 0.0719976 66.5103 0.487998 67.3423 1.32C68.2063 2.12 68.6383 3.144 68.6383 4.392C68.6383 5.64 68.2063 6.68 67.3423 7.512C66.5103 8.312 65.4383 8.712 64.1263 8.712C62.8143 8.712 61.7423 8.312 60.9103 7.512C60.0783 6.68 59.6623 5.64 59.6623 4.392C59.6623 3.144 60.0783 2.12 60.9103 1.32C61.7423 0.487998 62.8143 0.0719976 64.1263 0.0719976ZM80.6971 39.816C78.4891 39.816 76.7611 39.192 75.5131 37.944C74.2971 36.664 73.6891 34.856 73.6891 32.52V3.384L81.2731 2.568V32.232C81.2731 33.288 81.7051 33.816 82.5691 33.816C83.0171 33.816 83.4331 33.736 83.8171 33.576L85.3051 38.952C83.9291 39.528 82.3931 39.816 80.6971 39.816ZM103.107 12.696C105.315 12.696 107.043 13.368 108.291 14.712C109.539 16.056 110.163 17.944 110.163 20.376V39H102.579V21.672C102.579 20.392 102.371 19.512 101.955 19.032C101.539 18.52 100.947 18.264 100.179 18.264C98.6431 18.264 97.1711 19.352 95.7631 21.528V39H88.1791V3.384L95.7631 2.616V16.248C96.8191 15.064 97.9391 14.184 99.1231 13.608C100.307 13 101.635 12.696 103.107 12.696ZM138.106 25.752C138.106 26.808 138.058 27.72 137.962 28.488H122.17C122.426 30.632 123.034 32.136 123.994 33C124.954 33.864 126.282 34.296 127.978 34.296C129.002 34.296 129.994 34.12 130.954 33.768C131.914 33.384 132.954 32.808 134.074 32.04L137.194 36.264C134.218 38.632 130.906 39.816 127.258 39.816C123.13 39.816 119.962 38.6 117.754 36.168C115.546 33.736 114.442 30.472 114.442 26.376C114.442 23.784 114.906 21.464 115.834 19.416C116.762 17.336 118.122 15.704 119.914 14.52C121.706 13.304 123.85 12.696 126.346 12.696C130.026 12.696 132.906 13.848 134.986 16.152C137.066 18.456 138.106 21.656 138.106 25.752ZM130.666 23.592C130.602 19.688 129.226 17.736 126.538 17.736C125.226 17.736 124.202 18.216 123.466 19.176C122.762 20.136 122.33 21.72 122.17 23.928H130.666V23.592ZM156.191 12.792C157.119 12.792 157.967 12.904 158.735 13.128L157.535 20.472C156.575 20.248 155.807 20.136 155.231 20.136C153.727 20.136 152.575 20.664 151.775 21.72C151.007 22.744 150.399 24.296 149.951 26.376V39H142.367V13.512H148.991L149.615 18.456C150.191 16.696 151.055 15.32 152.207 14.328C153.391 13.304 154.719 12.792 156.191 12.792ZM189.808 12.696C191.824 12.696 193.44 13.384 194.656 14.76C195.872 16.104 196.48 17.976 196.48 20.376V39H188.896V21.672C188.896 19.4 188.176 18.264 186.736 18.264C185.936 18.264 185.232 18.536 184.624 19.08C184.016 19.624 183.424 20.456 182.848 21.576V39H175.264V21.672C175.264 19.4 174.544 18.264 173.104 18.264C172.336 18.264 171.632 18.552 170.992 19.128C170.384 19.672 169.792 20.488 169.216 21.576V39H161.632V13.512H168.256L168.784 16.488C169.776 15.208 170.864 14.264 172.048 13.656C173.264 13.016 174.64 12.696 176.176 12.696C177.616 12.696 178.848 13.048 179.872 13.752C180.928 14.456 181.696 15.448 182.176 16.728C183.2 15.352 184.32 14.344 185.536 13.704C186.784 13.032 188.208 12.696 189.808 12.696ZM224.403 25.752C224.403 26.808 224.355 27.72 224.259 28.488H208.467C208.723 30.632 209.331 32.136 210.291 33C211.251 33.864 212.579 34.296 214.275 34.296C215.299 34.296 216.291 34.12 217.251 33.768C218.211 33.384 219.251 32.808 220.371 32.04L223.491 36.264C220.515 38.632 217.203 39.816 213.555 39.816C209.427 39.816 206.259 38.6 204.051 36.168C201.843 33.736 200.739 30.472 200.739 26.376C200.739 23.784 201.203 21.464 202.131 19.416C203.059 17.336 204.419 15.704 206.211 14.52C208.003 13.304 210.147 12.696 212.643 12.696C216.323 12.696 219.203 13.848 221.283 16.152C223.363 18.456 224.403 21.656 224.403 25.752ZM216.963 23.592C216.899 19.688 215.523 17.736 212.835 17.736C211.523 17.736 210.499 18.216 209.763 19.176C209.059 20.136 208.627 21.72 208.467 23.928H216.963V23.592ZM250.902 4.92C253.398 4.92 255.558 5.272 257.382 5.976C259.238 6.68 260.918 7.752 262.422 9.192L258.774 13.464C256.502 11.608 254.07 10.68 251.478 10.68C250.102 10.68 249.014 10.968 248.214 11.544C247.414 12.088 247.014 12.888 247.014 13.944C247.014 14.68 247.19 15.288 247.542 15.768C247.894 16.216 248.518 16.648 249.414 17.064C250.31 17.48 251.654 17.976 253.446 18.552C256.838 19.64 259.334 20.984 260.934 22.584C262.534 24.152 263.334 26.392 263.334 29.304C263.334 31.384 262.806 33.224 261.75 34.824C260.694 36.392 259.174 37.624 257.19 38.52C255.206 39.384 252.854 39.816 250.134 39.816C247.414 39.816 244.998 39.384 242.886 38.52C240.806 37.656 239.014 36.504 237.51 35.064L241.494 30.696C242.774 31.784 244.086 32.6 245.43 33.144C246.806 33.688 248.294 33.96 249.894 33.96C251.526 33.96 252.806 33.608 253.734 32.904C254.694 32.168 255.174 31.16 255.174 29.88C255.174 29.048 254.998 28.36 254.646 27.816C254.294 27.24 253.686 26.728 252.822 26.28C251.958 25.832 250.71 25.352 249.078 24.84C245.398 23.72 242.774 22.344 241.206 20.712C239.67 19.08 238.902 17.016 238.902 14.52C238.902 12.6 239.414 10.92 240.438 9.48C241.462 8.008 242.886 6.888 244.71 6.12C246.534 5.32 248.598 4.92 250.902 4.92ZM287.779 31.608C287.779 32.568 287.907 33.272 288.163 33.72C288.451 34.168 288.899 34.504 289.507 34.728L287.923 39.672C286.355 39.544 285.075 39.208 284.083 38.664C283.091 38.088 282.323 37.192 281.779 35.976C280.115 38.536 277.555 39.816 274.099 39.816C271.571 39.816 269.555 39.08 268.051 37.608C266.547 36.136 265.795 34.216 265.795 31.848C265.795 29.064 266.819 26.936 268.867 25.464C270.915 23.992 273.875 23.256 277.747 23.256H280.339V22.152C280.339 20.648 280.019 19.624 279.379 19.08C278.739 18.504 277.619 18.216 276.019 18.216C275.187 18.216 274.179 18.344 272.995 18.6C271.811 18.824 270.595 19.144 269.347 19.56L267.619 14.568C269.219 13.96 270.851 13.496 272.515 13.176C274.211 12.856 275.779 12.696 277.219 12.696C280.867 12.696 283.539 13.448 285.235 14.952C286.931 16.456 287.779 18.712 287.779 21.72V31.608ZM276.307 34.392C278.035 34.392 279.379 33.576 280.339 31.944V27.432H278.467C276.739 27.432 275.443 27.736 274.579 28.344C273.747 28.952 273.331 29.896 273.331 31.176C273.331 32.2 273.587 33 274.099 33.576C274.643 34.12 275.379 34.392 276.307 34.392ZM308.748 12.696C310.956 12.696 312.684 13.368 313.932 14.712C315.18 16.056 315.804 17.944 315.804 20.376V39H308.22V21.672C308.22 20.392 308.012 19.512 307.596 19.032C307.212 18.52 306.62 18.264 305.82 18.264C304.284 18.264 302.812 19.368 301.404 21.576V39H293.82V13.512H300.444L300.972 16.536C302.06 15.256 303.228 14.296 304.476 13.656C305.756 13.016 307.18 12.696 308.748 12.696ZM337.507 37.8C336.579 38.44 335.491 38.936 334.243 39.288C333.027 39.64 331.811 39.816 330.595 39.816C325.027 39.784 322.243 36.712 322.243 30.6V18.792H318.643V13.512H322.243V7.992L329.827 7.128V13.512H335.683L334.867 18.792H329.827V30.504C329.827 31.688 330.019 32.536 330.403 33.048C330.787 33.56 331.395 33.816 332.227 33.816C333.091 33.816 334.003 33.544 334.963 33L337.507 37.8ZM350.235 12.696C354.139 12.696 357.195 13.896 359.403 16.296C361.611 18.664 362.715 21.992 362.715 26.28C362.715 29 362.203 31.384 361.179 33.432C360.187 35.448 358.747 37.016 356.859 38.136C355.003 39.256 352.795 39.816 350.235 39.816C346.363 39.816 343.307 38.632 341.067 36.264C338.859 33.864 337.755 30.52 337.755 26.232C337.755 23.512 338.251 21.144 339.243 19.128C340.267 17.08 341.707 15.496 343.563 14.376C345.451 13.256 347.675 12.696 350.235 12.696ZM350.235 18.264C348.699 18.264 347.547 18.92 346.779 20.232C346.011 21.512 345.627 23.512 345.627 26.232C345.627 29.016 345.995 31.048 346.731 32.328C347.499 33.608 348.667 34.248 350.235 34.248C351.771 34.248 352.923 33.608 353.691 32.328C354.459 31.016 354.843 29 354.843 26.28C354.843 23.496 354.459 21.464 353.691 20.184C352.955 18.904 351.803 18.264 350.235 18.264ZM376.202 12.696C378.026 12.696 379.738 12.968 381.338 13.512C382.938 14.056 384.346 14.824 385.562 15.816L382.778 20.088C380.698 18.776 378.602 18.12 376.49 18.12C375.498 18.12 374.73 18.296 374.186 18.648C373.674 18.968 373.418 19.432 373.418 20.04C373.418 20.52 373.53 20.92 373.754 21.24C374.01 21.528 374.506 21.832 375.242 22.152C375.978 22.472 377.114 22.856 378.65 23.304C381.306 24.072 383.274 25.08 384.554 26.328C385.866 27.544 386.522 29.24 386.522 31.416C386.522 33.144 386.026 34.648 385.034 35.928C384.042 37.176 382.682 38.136 380.954 38.808C379.226 39.48 377.306 39.816 375.194 39.816C373.05 39.816 371.05 39.48 369.194 38.808C367.37 38.136 365.818 37.208 364.538 36.024L368.234 31.896C370.378 33.56 372.634 34.392 375.002 34.392C376.154 34.392 377.05 34.184 377.69 33.768C378.362 33.352 378.698 32.76 378.698 31.992C378.698 31.384 378.57 30.904 378.314 30.552C378.058 30.2 377.562 29.88 376.826 29.592C376.09 29.272 374.922 28.888 373.322 28.44C370.794 27.704 368.906 26.68 367.658 25.368C366.41 24.056 365.786 22.424 365.786 20.472C365.786 19 366.202 17.688 367.034 16.536C367.898 15.352 369.114 14.424 370.682 13.752C372.282 13.048 374.122 12.696 376.202 12.696Z" fill="#141414"/>
</svg>
