<svg width="409" height="76" viewBox="0 0 409 76" fill="none" xmlns="http://www.w3.org/2000/svg">
<path d="M18.25 21.5C22.7167 21.5 26.5667 22.9167 29.8 25.75L25.65 30.1C24.4167 29.1667 23.2667 28.5 22.2 28.1C21.1667 27.6667 19.9667 27.45 18.6 27.45C16.0333 27.45 13.9833 28.4667 12.45 30.5C10.9167 32.5 10.15 35.55 10.15 39.65C10.15 44.0833 10.7333 47.2333 11.9 49.1C13.0667 50.9333 14.8833 51.85 17.35 51.85C19.0833 51.85 20.65 51.4667 22.05 50.7V42.85H17.55L16.75 37.05H30V54.2C28.2 55.3667 26.2167 56.2667 24.05 56.9C21.8833 57.5333 19.7167 57.85 17.55 57.85C12.2833 57.85 8.31667 56.3167 5.65 53.25C2.98333 50.15 1.65 45.6167 1.65 39.65C1.65 35.85 2.36667 32.5833 3.8 29.85C5.26667 27.1167 7.25 25.05 9.75 23.65C12.2833 22.2167 15.1167 21.5 18.25 21.5ZM57.7266 57H50.8766L50.5266 53.65C48.5932 56.45 45.9099 57.85 42.4766 57.85C40.0432 57.85 38.1932 57.1167 36.9266 55.65C35.6932 54.1833 35.0766 52.1333 35.0766 49.5V30.45H42.9766V48.5C42.9766 49.8 43.1766 50.7167 43.5766 51.25C44.0099 51.75 44.6599 52 45.5266 52C47.1932 52 48.6266 50.9667 49.8266 48.9V30.45H57.7266V57ZM71.8398 30.45V57H63.9398V30.45H71.8398ZM67.8398 16.45C69.2065 16.45 70.3232 16.8833 71.1898 17.75C72.0898 18.5833 72.5398 19.65 72.5398 20.95C72.5398 22.25 72.0898 23.3333 71.1898 24.2C70.3232 25.0333 69.2065 25.45 67.8398 25.45C66.4732 25.45 65.3565 25.0333 64.4898 24.2C63.6232 23.3333 63.1898 22.25 63.1898 20.95C63.1898 19.65 63.6232 18.5833 64.4898 17.75C65.3565 16.8833 66.4732 16.45 67.8398 16.45ZM85.1012 57.85C82.8012 57.85 81.0012 57.2 79.7012 55.9C78.4345 54.5667 77.8012 52.6833 77.8012 50.25V19.9L85.7012 19.05V49.95C85.7012 51.05 86.1512 51.6 87.0512 51.6C87.5178 51.6 87.9512 51.5167 88.3512 51.35L89.9012 56.95C88.4678 57.55 86.8678 57.85 85.1012 57.85ZM108.445 29.6C110.745 29.6 112.545 30.3 113.845 31.7C115.145 33.1 115.795 35.0667 115.795 37.6V57H107.895V38.95C107.895 37.6167 107.678 36.7 107.245 36.2C106.812 35.6667 106.195 35.4 105.395 35.4C103.795 35.4 102.262 36.5333 100.795 38.8V57H92.8949V19.9L100.795 19.1V33.3C101.895 32.0667 103.062 31.15 104.295 30.55C105.528 29.9167 106.912 29.6 108.445 29.6ZM144.902 43.2C144.902 44.3 144.852 45.25 144.752 46.05H128.302C128.569 48.2833 129.202 49.85 130.202 50.75C131.202 51.65 132.586 52.1 134.352 52.1C135.419 52.1 136.452 51.9167 137.452 51.55C138.452 51.15 139.536 50.55 140.702 49.75L143.952 54.15C140.852 56.6167 137.402 57.85 133.602 57.85C129.302 57.85 126.002 56.5833 123.702 54.05C121.402 51.5167 120.252 48.1167 120.252 43.85C120.252 41.15 120.736 38.7333 121.702 36.6C122.669 34.4333 124.086 32.7333 125.952 31.5C127.819 30.2333 130.052 29.6 132.652 29.6C136.486 29.6 139.486 30.8 141.652 33.2C143.819 35.6 144.902 38.9333 144.902 43.2ZM137.152 40.95C137.086 36.8833 135.652 34.85 132.852 34.85C131.486 34.85 130.419 35.35 129.652 36.35C128.919 37.35 128.469 39 128.302 41.3H137.152V40.95ZM163.74 29.7C164.707 29.7 165.59 29.8167 166.39 30.05L165.14 37.7C164.14 37.4667 163.34 37.35 162.74 37.35C161.174 37.35 159.974 37.9 159.14 39C158.34 40.0667 157.707 41.6833 157.24 43.85V57H149.34V30.45H156.24L156.89 35.6C157.49 33.7667 158.39 32.3333 159.59 31.3C160.824 30.2333 162.207 29.7 163.74 29.7ZM198.759 29.6C200.859 29.6 202.542 30.3167 203.809 31.75C205.075 33.15 205.709 35.1 205.709 37.6V57H197.809V38.95C197.809 36.5833 197.059 35.4 195.559 35.4C194.725 35.4 193.992 35.6833 193.359 36.25C192.725 36.8167 192.109 37.6833 191.509 38.85V57H183.609V38.95C183.609 36.5833 182.859 35.4 181.359 35.4C180.559 35.4 179.825 35.7 179.159 36.3C178.525 36.8667 177.909 37.7167 177.309 38.85V57H169.409V30.45H176.309L176.859 33.55C177.892 32.2167 179.025 31.2333 180.259 30.6C181.525 29.9333 182.959 29.6 184.559 29.6C186.059 29.6 187.342 29.9667 188.409 30.7C189.509 31.4333 190.309 32.4667 190.809 33.8C191.875 32.3667 193.042 31.3167 194.309 30.65C195.609 29.95 197.092 29.6 198.759 29.6ZM234.795 43.2C234.795 44.3 234.745 45.25 234.645 46.05H218.195C218.462 48.2833 219.095 49.85 220.095 50.75C221.095 51.65 222.478 52.1 224.245 52.1C225.312 52.1 226.345 51.9167 227.345 51.55C228.345 51.15 229.428 50.55 230.595 49.75L233.845 54.15C230.745 56.6167 227.295 57.85 223.495 57.85C219.195 57.85 215.895 56.5833 213.595 54.05C211.295 51.5167 210.145 48.1167 210.145 43.85C210.145 41.15 210.628 38.7333 211.595 36.6C212.562 34.4333 213.978 32.7333 215.845 31.5C217.712 30.2333 219.945 29.6 222.545 29.6C226.378 29.6 229.378 30.8 231.545 33.2C233.712 35.6 234.795 38.9333 234.795 43.2ZM227.045 40.95C226.978 36.8833 225.545 34.85 222.745 34.85C221.378 34.85 220.312 35.35 219.545 36.35C218.812 37.35 218.362 39 218.195 41.3H227.045V40.95ZM262.398 21.5C264.998 21.5 267.248 21.8667 269.148 22.6C271.081 23.3333 272.831 24.45 274.398 25.95L270.598 30.4C268.231 28.4667 265.698 27.5 262.998 27.5C261.565 27.5 260.431 27.8 259.598 28.4C258.765 28.9667 258.348 29.8 258.348 30.9C258.348 31.6667 258.531 32.3 258.898 32.8C259.265 33.2667 259.915 33.7167 260.848 34.15C261.781 34.5833 263.181 35.1 265.048 35.7C268.581 36.8333 271.181 38.2333 272.848 39.9C274.515 41.5333 275.348 43.8667 275.348 46.9C275.348 49.0667 274.798 50.9833 273.698 52.65C272.598 54.2833 271.015 55.5667 268.948 56.5C266.881 57.4 264.431 57.85 261.598 57.85C258.765 57.85 256.248 57.4 254.048 56.5C251.881 55.6 250.015 54.4 248.448 52.9L252.598 48.35C253.931 49.4833 255.298 50.3333 256.698 50.9C258.131 51.4667 259.681 51.75 261.348 51.75C263.048 51.75 264.381 51.3833 265.348 50.65C266.348 49.8833 266.848 48.8333 266.848 47.5C266.848 46.6333 266.665 45.9167 266.298 45.35C265.931 44.75 265.298 44.2167 264.398 43.75C263.498 43.2833 262.198 42.7833 260.498 42.25C256.665 41.0833 253.931 39.65 252.298 37.95C250.698 36.25 249.898 34.1 249.898 31.5C249.898 29.5 250.431 27.75 251.498 26.25C252.565 24.7167 254.048 23.55 255.948 22.75C257.848 21.9167 259.998 21.5 262.398 21.5ZM300.811 49.3C300.811 50.3 300.945 51.0333 301.211 51.5C301.511 51.9667 301.978 52.3167 302.611 52.55L300.961 57.7C299.328 57.5667 297.995 57.2167 296.961 56.65C295.928 56.05 295.128 55.1167 294.561 53.85C292.828 56.5167 290.161 57.85 286.561 57.85C283.928 57.85 281.828 57.0833 280.261 55.55C278.695 54.0167 277.911 52.0167 277.911 49.55C277.911 46.65 278.978 44.4333 281.111 42.9C283.245 41.3667 286.328 40.6 290.361 40.6H293.061V39.45C293.061 37.8833 292.728 36.8167 292.061 36.25C291.395 35.65 290.228 35.35 288.561 35.35C287.695 35.35 286.645 35.4833 285.411 35.75C284.178 35.9833 282.911 36.3167 281.611 36.75L279.811 31.55C281.478 30.9167 283.178 30.4333 284.911 30.1C286.678 29.7667 288.311 29.6 289.811 29.6C293.611 29.6 296.395 30.3833 298.161 31.95C299.928 33.5167 300.811 35.8667 300.811 39V49.3ZM288.861 52.2C290.661 52.2 292.061 51.35 293.061 49.65V44.95H291.111C289.311 44.95 287.961 45.2667 287.061 45.9C286.195 46.5333 285.761 47.5167 285.761 48.85C285.761 49.9167 286.028 50.75 286.561 51.35C287.128 51.9167 287.895 52.2 288.861 52.2ZM322.654 29.6C324.954 29.6 326.754 30.3 328.054 31.7C329.354 33.1 330.004 35.0667 330.004 37.6V57H322.104V38.95C322.104 37.6167 321.887 36.7 321.454 36.2C321.054 35.6667 320.437 35.4 319.604 35.4C318.004 35.4 316.471 36.55 315.004 38.85V57H307.104V30.45H314.004L314.554 33.6C315.687 32.2667 316.904 31.2667 318.204 30.6C319.537 29.9333 321.021 29.6 322.654 29.6ZM352.611 55.75C351.645 56.4167 350.511 56.9333 349.211 57.3C347.945 57.6667 346.678 57.85 345.411 57.85C339.611 57.8167 336.711 54.6167 336.711 48.25V35.95H332.961V30.45H336.711V24.7L344.611 23.8V30.45H350.711L349.861 35.95H344.611V48.15C344.611 49.3833 344.811 50.2667 345.211 50.8C345.611 51.3333 346.245 51.6 347.111 51.6C348.011 51.6 348.961 51.3167 349.961 50.75L352.611 55.75ZM365.87 29.6C369.936 29.6 373.12 30.85 375.42 33.35C377.72 35.8167 378.87 39.2833 378.87 43.75C378.87 46.5833 378.336 49.0667 377.27 51.2C376.236 53.3 374.736 54.9333 372.77 56.1C370.836 57.2667 368.536 57.85 365.87 57.85C361.836 57.85 358.653 56.6167 356.32 54.15C354.02 51.65 352.87 48.1667 352.87 43.7C352.87 40.8667 353.386 38.4 354.42 36.3C355.486 34.1667 356.986 32.5167 358.92 31.35C360.886 30.1833 363.203 29.6 365.87 29.6ZM365.87 35.4C364.27 35.4 363.07 36.0833 362.27 37.45C361.47 38.7833 361.07 40.8667 361.07 43.7C361.07 46.6 361.453 48.7167 362.22 50.05C363.02 51.3833 364.236 52.05 365.87 52.05C367.47 52.05 368.67 51.3833 369.47 50.05C370.27 48.6833 370.67 46.5833 370.67 43.75C370.67 40.85 370.27 38.7333 369.47 37.4C368.703 36.0667 367.503 35.4 365.87 35.4ZM392.919 29.6C394.819 29.6 396.602 29.8833 398.269 30.45C399.935 31.0167 401.402 31.8167 402.669 32.85L399.769 37.3C397.602 35.9333 395.419 35.25 393.219 35.25C392.185 35.25 391.385 35.4333 390.819 35.8C390.285 36.1333 390.019 36.6167 390.019 37.25C390.019 37.75 390.135 38.1667 390.369 38.5C390.635 38.8 391.152 39.1167 391.919 39.45C392.685 39.7833 393.869 40.1833 395.469 40.65C398.235 41.45 400.285 42.5 401.619 43.8C402.985 45.0667 403.669 46.8333 403.669 49.1C403.669 50.9 403.152 52.4667 402.119 53.8C401.085 55.1 399.669 56.1 397.869 56.8C396.069 57.5 394.069 57.85 391.869 57.85C389.635 57.85 387.552 57.5 385.619 56.8C383.719 56.1 382.102 55.1333 380.769 53.9L384.619 49.6C386.852 51.3333 389.202 52.2 391.669 52.2C392.869 52.2 393.802 51.9833 394.469 51.55C395.169 51.1167 395.519 50.5 395.519 49.7C395.519 49.0667 395.385 48.5667 395.119 48.2C394.852 47.8333 394.335 47.5 393.569 47.2C392.802 46.8667 391.585 46.4667 389.919 46C387.285 45.2333 385.319 44.1667 384.019 42.8C382.719 41.4333 382.069 39.7333 382.069 37.7C382.069 36.1667 382.502 34.8 383.369 33.6C384.269 32.3667 385.535 31.4 387.169 30.7C388.835 29.9667 390.752 29.6 392.919 29.6Z" fill="black"/>
</svg>
